<svg id="Capa_1" data-name="Capa 1" xmlns="http://www.w3.org/2000/svg" viewBox="0 0 50 40"><defs><style>.cls-1{fill:#edda3a;}</style></defs><path class="cls-1" d="M18.8,15.17a8.25,8.25,0,0,1,3.43-6.24A2.47,2.47,0,0,0,20,7.5H17.7l2.4-1.72A1.24,1.24,0,0,0,20.39,4l-.73-1a1.23,1.23,0,0,0-1.74-.29l-2.5,1.79.9-2.4a1.25,1.25,0,0,0-.73-1.6L14.41.09A1.25,1.25,0,0,0,12.8.82L11.25,5,9.7.81A1.26,1.26,0,0,0,8.09.08L6.91.52a1.25,1.25,0,0,0-.72,1.61l.9,2.39L4.58,2.74A1.24,1.24,0,0,0,2.84,3L2.11,4A1.25,1.25,0,0,0,2.4,5.78L4.8,7.5H2.5A2.5,2.5,0,0,0,0,10V37.5A2.5,2.5,0,0,0,2.5,40H15.7a4.94,4.94,0,0,1-.7-2.5V20A5,5,0,0,1,18.8,15.17ZM17.5,37.5A2.5,2.5,0,0,0,20,40H32.5V30h-15ZM35,40H47.5A2.5,2.5,0,0,0,50,37.5V30H35ZM47.5,17.5H45.91a5.78,5.78,0,0,0,.34-1.86A5.58,5.58,0,0,0,40.62,10c-3.76,0-5.93,3.73-6.87,5.88-1-2.15-3.12-5.88-6.87-5.88a5.58,5.58,0,0,0-5.63,5.64,5.52,5.52,0,0,0,.34,1.86H20A2.5,2.5,0,0,0,17.5,20v7.5h15v-10H35v10H50V20A2.5,2.5,0,0,0,47.5,17.5Zm-21.25,0a2.86,2.86,0,0,1-.56-.37A1.93,1.93,0,0,1,25,15.64a1.83,1.83,0,0,1,1.88-1.89c1.46,0,2.78,2.14,3.48,3.75Zm15.56-.37a2.86,2.86,0,0,1-.56.37H37.14c.69-1.58,2-3.75,3.48-3.75a1.83,1.83,0,0,1,1.88,1.89A1.93,1.93,0,0,1,41.81,17.13Z"/></svg>