<svg id="Capa_1" data-name="Capa 1" xmlns="http://www.w3.org/2000/svg" viewBox="0 0 36.9 36.9"><defs><style>.cls-1{fill:#edda3a;}</style></defs><path class="cls-1" d="M32.55,0H4.34A4.34,4.34,0,0,0,0,4.34V32.55A4.34,4.34,0,0,0,4.34,36.9H32.55a4.35,4.35,0,0,0,4.35-4.35V4.34A4.34,4.34,0,0,0,32.55,0ZM12.27,29.64H7.63V14.7h4.64ZM10,12.66A2.71,2.71,0,0,1,7.26,9.94,2.69,2.69,0,1,1,10,12.66Zm19.69,17H25V22.36c0-1.73,0-3.95-2.41-3.95s-2.78,1.88-2.78,3.83v7.4H15.17V14.7h4.45v2h.07a4.88,4.88,0,0,1,4.39-2.41c4.69,0,5.56,3.09,5.56,7.11Z"/></svg>