<svg id="Capa_1" data-name="Capa 1" xmlns="http://www.w3.org/2000/svg" viewBox="0 0 71.78 57.43"><defs><style>.cls-1{fill:#b3b3b3;}</style></defs><path class="cls-1" d="M70,39.48H68.2V27.36a5.4,5.4,0,0,0-1.59-3.81l-11.2-11.2a5.38,5.38,0,0,0-3.8-1.58h-5V5.38A5.38,5.38,0,0,0,41.28,0H5.38A5.38,5.38,0,0,0,0,5.38v35.9a5.38,5.38,0,0,0,5.38,5.38h1.8a10.77,10.77,0,1,0,21.53,0H43.07a10.77,10.77,0,1,0,21.54,0H70a1.79,1.79,0,0,0,1.79-1.79V41.28A1.8,1.8,0,0,0,70,39.48ZM18,52a5.38,5.38,0,1,1,5.38-5.38A5.38,5.38,0,0,1,18,52Zm35.89,0a5.38,5.38,0,1,1,5.38-5.38A5.39,5.39,0,0,1,53.84,52Zm9-23.33H46.66V16.15h5l11.2,11.21Z"/></svg>