<svg id="Capa_1" data-name="Capa 1" xmlns="http://www.w3.org/2000/svg" viewBox="0 0 54.93 52.59"><defs><style>.cls-1{fill:#fff;}</style></defs><path class="cls-1" d="M30.66,2l5.72,11.6a3.59,3.59,0,0,0,2.69,1.95l12.8,1.86a3.57,3.57,0,0,1,2,6.08l-9.27,9a3.55,3.55,0,0,0-1,3.15l2.18,12.75a3.56,3.56,0,0,1-5.17,3.76l-11.45-6a3.6,3.6,0,0,0-3.32,0l-11.44,6a3.57,3.57,0,0,1-5.18-3.76l2.19-12.75a3.56,3.56,0,0,0-1-3.15l-9.26-9a3.56,3.56,0,0,1,2-6.08l12.8-1.86a3.57,3.57,0,0,0,2.68-1.95L24.26,2A3.57,3.57,0,0,1,30.66,2Z"/></svg>