<svg id="Capa_1" data-name="Capa 1" xmlns="http://www.w3.org/2000/svg" viewBox="0 0 52.59 52.59"><defs><style>.cls-1{fill:#fff;}</style></defs><path class="cls-1" d="M0,41.63V46c0,3.63,8.83,6.58,19.72,6.58s19.72-3,19.72-6.58V41.63c-4.24,3-12,4.38-19.72,4.38S4.24,44.62,0,41.63ZM32.87,13.15c10.88,0,19.72-3,19.72-6.58S43.75,0,32.87,0,13.15,3,13.15,6.57,22,13.15,32.87,13.15ZM0,30.85v5.3c0,3.63,8.83,6.58,19.72,6.58s19.72-2.95,19.72-6.58v-5.3c-4.24,3.5-12,5.3-19.72,5.3S4.24,34.35,0,30.85ZM42.73,32c5.88-1.14,9.86-3.25,9.86-5.69V21.91c-2.39,1.68-5.89,2.83-9.86,3.54Zm-23-15.55C8.83,16.43,0,20.11,0,24.65s8.83,8.22,19.72,8.22,19.72-3.68,19.72-8.22S30.61,16.43,19.72,16.43Zm22.52,5.79c6.17-1.11,10.35-3.29,10.35-5.79V12.05c-3.65,2.58-9.91,4-16.51,4.29C39.11,17.81,41.34,19.78,42.24,22.22Z"/></svg>