<svg id="Capa_1" data-name="Capa 1" xmlns="http://www.w3.org/2000/svg" viewBox="0 0 36.9 36.9"><defs><style>.cls-1{fill:#edda3a;}</style></defs><path class="cls-1" d="M32.55,0H4.34A4.34,4.34,0,0,0,0,4.34V32.55A4.34,4.34,0,0,0,4.34,36.9H32.55a4.35,4.35,0,0,0,4.35-4.35V4.34A4.34,4.34,0,0,0,32.55,0ZM20.16,23.44a3.66,3.66,0,0,1-3.11-1.61c-1,4-.94,4.65-3.2,7.74-.24.09-.16.11-.31-.06-.08-.85-.2-1.68-.2-2.53,0-2.75,1.26-6.71,1.88-9.38a5.19,5.19,0,0,1-.43-2.27c0-3.59,4.21-4.13,4.21-1.16,0,1.75-1.18,3.39-1.18,5.09a2,2,0,0,0,2.07,2c3.09,0,4.05-4.47,4.05-6.85,0-3.18-2.26-4.92-5.32-4.92a6.06,6.06,0,0,0-6.29,6.16c0,1.74,1.06,2.62,1.06,3s-.26,1.59-.7,1.59c-1.08,0-2.85-1.79-2.85-4.95,0-5,4.55-8,9.15-8,4.22,0,8.07,2.9,8.07,7.36C27.06,18.8,24.92,23.44,20.16,23.44Z"/></svg>