<svg id="Capa_1" data-name="Capa 1" xmlns="http://www.w3.org/2000/svg" viewBox="0 0 69.08 57.43"><defs><style>.cls-1{fill:#b3b3b3;}</style></defs><path class="cls-1" d="M67.52,13.3,60.24,1.68A3.6,3.6,0,0,0,57.2,0H11.88a3.6,3.6,0,0,0-3,1.68L1.56,13.3c-3.75,6-.42,14.35,6.6,15.3A11.18,11.18,0,0,0,18,25a11.09,11.09,0,0,0,16.56,0,11.08,11.08,0,0,0,16.55,0A11.2,11.2,0,0,0,60.9,28.6C67.94,27.66,71.28,19.31,67.52,13.3Zm-8.14,19a14.55,14.55,0,0,1-3.3-.42V43.07H13V31.88a15.14,15.14,0,0,1-3.3.42,15,15,0,0,1-2-.13,13.66,13.66,0,0,1-1.84-.41V53.84a3.59,3.59,0,0,0,3.59,3.59H59.68a3.58,3.58,0,0,0,3.58-3.59V31.76a11.52,11.52,0,0,1-1.83.41,15.68,15.68,0,0,1-2,.13Z"/></svg>