<svg id="Capa_1" data-name="Capa 1" xmlns="http://www.w3.org/2000/svg" viewBox="0 0 65.22 52.17"><defs><style>.cls-1{fill:#fff;}</style></defs><path class="cls-1" d="M49.73,19.56H34.24v5.71a7.34,7.34,0,1,1-14.67,0V12.88l-6.62,4a6.52,6.52,0,0,0-3.17,5.59v4.82L1.63,32A3.26,3.26,0,0,0,.44,36.42L8.59,50.54a3.27,3.27,0,0,0,4.46,1.19l10.53-6.08H37.5A6.52,6.52,0,0,0,44,39.13h1.63a3.26,3.26,0,0,0,3.27-3.26V29.35h.81a2.44,2.44,0,0,0,2.45-2.45V22A2.44,2.44,0,0,0,49.73,19.56Zm15.05-3.81L56.63,1.63A3.25,3.25,0,0,0,52.18.44L41.64,6.52H31.23a6.59,6.59,0,0,0-3.46,1L24.36,9.64a3.23,3.23,0,0,0-1.53,2.76V25.27a4.08,4.08,0,1,0,8.15,0v-9H49.73A5.71,5.71,0,0,1,55.44,22v2.9l8.15-4.7A3.27,3.27,0,0,0,64.78,15.75Z"/></svg>