<svg id="Capa_1" data-name="Capa 1" xmlns="http://www.w3.org/2000/svg" viewBox="0 0 36.9 36.9"><defs><style>.cls-1{fill:#edda3a;}</style></defs><path class="cls-1" d="M27.17,11.85a3.76,3.76,0,0,0-2.12-2.13c-1.47-.57-5-.45-6.6-.45s-5.12-.13-6.6.45a3.79,3.79,0,0,0-2.12,2.13c-.58,1.47-.45,5-.45,6.6s-.14,5.12.45,6.59a3.74,3.74,0,0,0,2.12,2.13c1.47.58,5,.45,6.6.45s5.12.14,6.6-.45A3.76,3.76,0,0,0,27.17,25c.59-1.46.45-5,.45-6.59S27.76,13.32,27.17,11.85ZM18.45,24.19a5.74,5.74,0,1,1,5.74-5.74A5.73,5.73,0,0,1,18.45,24.19Zm6-10.38a1.34,1.34,0,1,1,1.34-1.33A1.34,1.34,0,0,1,24.42,13.81Z"/><path class="cls-1" d="M32.55,0H4.34A4.34,4.34,0,0,0,0,4.34V32.55A4.34,4.34,0,0,0,4.34,36.9H32.55a4.35,4.35,0,0,0,4.35-4.35V4.34A4.34,4.34,0,0,0,32.55,0Zm-3,23.06a6.67,6.67,0,0,1-1.81,4.69,6.65,6.65,0,0,1-4.69,1.81c-1.84.1-7.38.1-9.23,0a6.69,6.69,0,0,1-4.69-1.81,6.67,6.67,0,0,1-1.81-4.69c-.1-1.85-.1-7.38,0-9.23A6.67,6.67,0,0,1,9.14,9.14a6.64,6.64,0,0,1,4.69-1.8c1.85-.11,7.39-.11,9.23,0a6.65,6.65,0,0,1,4.69,1.81,6.54,6.54,0,0,1,1.81,4.68C29.67,15.68,29.67,21.21,29.56,23.06Z"/><path class="cls-1" d="M18.45,14.72a3.73,3.73,0,1,0,3.73,3.73A3.73,3.73,0,0,0,18.45,14.72Z"/></svg>