<svg id="Capa_1" data-name="Capa 1" xmlns="http://www.w3.org/2000/svg" viewBox="0 0 71.79 57.43"><defs><style>.cls-1{fill:#b3b3b3;}</style></defs><path class="cls-1" d="M54.74,21.53H37.69v6.29a8.08,8.08,0,0,1-16.15,0V14.18l-7.28,4.37a7.16,7.16,0,0,0-3.49,6.15V30l-9,5.19a3.58,3.58,0,0,0-1.32,4.9l9,15.55A3.6,3.6,0,0,0,14.36,57L26,50.25H41.28a7.19,7.19,0,0,0,7.18-7.18h1.8a3.59,3.59,0,0,0,3.59-3.59V32.3h.89a2.68,2.68,0,0,0,2.69-2.69V24.23A2.69,2.69,0,0,0,54.74,21.53Zm16.57-4.19-9-15.55A3.6,3.6,0,0,0,57.43.48L45.84,7.18H34.37a7.28,7.28,0,0,0-3.8,1.08l-3.76,2.35a3.58,3.58,0,0,0-1.68,3V27.82a4.49,4.49,0,0,0,9,0V18H54.74A6.28,6.28,0,0,1,61,24.23v3.19l9-5.18A3.59,3.59,0,0,0,71.31,17.34Z"/></svg>