<svg id="Capa_1" data-name="Capa 1" xmlns="http://www.w3.org/2000/svg" viewBox="0 0 50 57.14"><defs><style>.cls-1{fill:#edda3a;}</style></defs><path class="cls-1" d="M50,42.86c-3.13,0-3.49-3.57-8.31-3.57s-5.23,3.57-8.35,3.57S29.83,39.29,25,39.29s-5.27,3.57-8.31,3.57-3.49-3.57-8.35-3.57S3.14,42.86,0,42.86V33.93a5.36,5.36,0,0,1,5.36-5.36H7.14V12.5h7.15V28.57h7.14V12.5h7.14V28.57h7.14V12.5h7.15V28.57h1.78A5.36,5.36,0,0,1,50,33.93Zm0,14.28H0V46.43c4.84,0,5.22-3.57,8.34-3.57s3.49,3.57,8.35,3.57S22,42.86,25,42.86s3.48,3.57,8.34,3.57,5.22-3.57,8.35-3.57,3.48,3.57,8.31,3.57ZM10.71,10.71A3.56,3.56,0,0,1,7.14,7.14c0-3.46,3.57-2.56,3.57-7.14,1.34,0,3.58,3.29,3.58,6.25S12.7,10.71,10.71,10.71Zm14.29,0a3.56,3.56,0,0,1-3.57-3.57C21.43,3.68,25,4.58,25,0c1.34,0,3.57,3.29,3.57,6.25S27,10.71,25,10.71Zm14.29,0a3.56,3.56,0,0,1-3.58-3.57c0-3.46,3.58-2.56,3.58-7.14,1.33,0,3.57,3.29,3.57,6.25S41.27,10.71,39.29,10.71Z"/></svg>