<svg id="Capa_1" data-name="Capa 1" xmlns="http://www.w3.org/2000/svg" viewBox="0 0 180 118.57"><defs><style>.cls-1{fill:#edda3a;}.cls-2{fill:#900c32;}</style></defs><path class="cls-1" d="M157.33,68.94a2.36,2.36,0,0,0-1.67.7s-7.77,8.86-19.57,8.86-19.57-8.86-19.57-8.86A2.38,2.38,0,0,0,113.18,73s11.11,10.26,22.91,10.26S159,73,159,73a2.42,2.42,0,0,0,.69-1.69,2.38,2.38,0,0,0-2.36-2.39"/><path class="cls-1" d="M136.09,45.81a6.89,6.89,0,0,0-6.89,6.9,1.21,1.21,0,0,1-2.41,0h0a9.29,9.29,0,0,1,9.29-9.29h0a1.2,1.2,0,0,1,0,2.4m0-4.79a11.69,11.69,0,1,0,11.68,11.69A11.69,11.69,0,0,0,136.09,41"/><path class="cls-1" d="M14.93,87.1a2.3,2.3,0,0,1-1.84.73,2.37,2.37,0,0,1-1.87-.73,2.65,2.65,0,0,1-.64-1.82l0-24H2.11a2.11,2.11,0,0,1-1.54-.6A2,2,0,0,1,0,59.23a2,2,0,0,1,.65-1.51,2.2,2.2,0,0,1,1.54-.62H24a2.25,2.25,0,0,1,1.55.62,2,2,0,0,1,0,3,2.21,2.21,0,0,1-1.56.6H15.63l-.09,24a2.72,2.72,0,0,1-.61,1.82"/><path class="cls-1" d="M29.15,87.06a2.27,2.27,0,0,1-1.87.77,2.36,2.36,0,0,1-1.9-.77,2.91,2.91,0,0,1-.64-1.92V67.31a2.35,2.35,0,0,1,.53-1.57,2,2,0,0,1,1.56-.64c1.37,0,2.06.59,2.06,1.77v1.94H29a8.22,8.22,0,0,1,2.64-2.87,6.64,6.64,0,0,1,3.61-1.19,2.25,2.25,0,0,1,1.76.66,2.46,2.46,0,0,1,0,3.24,2.2,2.2,0,0,1-1.76.69A5.52,5.52,0,0,0,31.3,71a5.83,5.83,0,0,0-1.48,4.26l0,9.93a3,3,0,0,1-.63,1.92"/><path class="cls-1" d="M51.64,83.48a5.76,5.76,0,0,0,4.63-2A7.84,7.84,0,0,0,58,76.22,7.37,7.37,0,0,0,56.23,71a6.05,6.05,0,0,0-4.68-1.89,5.81,5.81,0,0,0-4.52,2A8.58,8.58,0,0,0,47,81.5a5.87,5.87,0,0,0,4.61,2m-1.18,4.34A9.47,9.47,0,0,1,43,84.63a11.93,11.93,0,0,1-2.83-8.23A12.08,12.08,0,0,1,43.1,68a9.77,9.77,0,0,1,7.62-3.26,9.22,9.22,0,0,1,4.63,1.15,7.7,7.7,0,0,1,3.1,3.15h.08V67.27A2.36,2.36,0,0,1,59,65.73a2.14,2.14,0,0,1,3,0,2.36,2.36,0,0,1,.51,1.54V80a6.42,6.42,0,0,0,.24,2.17,2.55,2.55,0,0,0,1.12,1.09,2.72,2.72,0,0,1,1.23,2.17,2.4,2.4,0,0,1-.71,1.78,2.76,2.76,0,0,1-2.1.65,3.79,3.79,0,0,1-2.79-1.23,5.1,5.1,0,0,1-1.25-2.85h-.09a6.77,6.77,0,0,1-3.08,3,10.18,10.18,0,0,1-4.69,1"/><path class="cls-1" d="M78.25,87.83q-5.4,0-8.21-2a2.74,2.74,0,0,1-1.27-2.31,1.65,1.65,0,0,1,.55-1.34,2,2,0,0,1,1.47-.44,22.9,22.9,0,0,1,3,1.11,12,12,0,0,0,4.57,1q4.51,0,4.52-2.52A2,2,0,0,0,82,79.7a5.61,5.61,0,0,0-1.85-1c-.67-.21-1.64-.44-2.89-.7a20.42,20.42,0,0,1-2.9-.8A14.05,14.05,0,0,1,71.93,76a5.27,5.27,0,0,1-1.89-2,5.91,5.91,0,0,1-.66-2.87,5.51,5.51,0,0,1,2.39-4.69,11.06,11.06,0,0,1,6.61-1.74,12.66,12.66,0,0,1,6.68,1.61,2.39,2.39,0,0,1,1.45,2,1.73,1.73,0,0,1-.86,1.7,2.88,2.88,0,0,1-2.13.08,8.88,8.88,0,0,1-1.27-.47,14.54,14.54,0,0,0-2-.66,8.75,8.75,0,0,0-2.13-.26c-2.57,0-3.86.76-3.86,2.26a2.22,2.22,0,0,0,.15.85,1.42,1.42,0,0,0,.6.65,8.29,8.29,0,0,0,.83.48,6.62,6.62,0,0,0,1.21.41l1.34.35c.35.09.89.21,1.62.35q1.32.3,2.22.54a12.22,12.22,0,0,1,2,.78,7.18,7.18,0,0,1,1.82,1.2A5.2,5.2,0,0,1,87.3,78.4a6,6,0,0,1,.48,2.47,6.38,6.38,0,0,1-2.24,5q-2.24,2-7.29,2"/><path class="cls-2" d="M92.17,39.53V2a2.1,2.1,0,0,1,2.2-2H177.8A2.1,2.1,0,0,1,180,2V39.53c-24.25,0-43.91-15.93-43.91-35.58,0,14.59-10.84,27.13-26.35,32.62h0a52.53,52.53,0,0,1-17.57,3"/><path class="cls-2" d="M92.17,43.92V85.63a2.2,2.2,0,0,0,2.2,2.2h14.29A2.2,2.2,0,0,0,110.77,85a32.5,32.5,0,0,1-1-8.91c0-8.78,2.19-14.64,2.19-23.42S109.74,41,109.74,41a52.79,52.79,0,0,1-17.57,3"/><path class="cls-2" d="M180,43.92V85.63a2.19,2.19,0,0,1-2.2,2.2H163.52A2.2,2.2,0,0,1,161.41,85a33,33,0,0,0,1-8.91c0-8.78-2.19-14.64-2.19-23.42S162.43,41,162.43,41a52.79,52.79,0,0,0,17.57,3"/><path class="cls-2" d="M27.8,115.45A4,4,0,0,0,31,114a5.73,5.73,0,0,0,1.18-3.79A5.4,5.4,0,0,0,31,106.51a4.15,4.15,0,0,0-3.26-1.36,4,4,0,0,0-3.15,1.41,6.29,6.29,0,0,0,0,7.47,4.05,4.05,0,0,0,3.21,1.42M27,118.56a6.49,6.49,0,0,1-5.19-2.29,8.72,8.72,0,0,1-2-5.91,8.83,8.83,0,0,1,2-6A6.7,6.7,0,0,1,27.16,102a6.31,6.31,0,0,1,3.23.82,5.46,5.46,0,0,1,2.16,2.26h.06v-1.28a1.76,1.76,0,0,1,.35-1.1,1.45,1.45,0,0,1,2.12,0,1.76,1.76,0,0,1,.35,1.1v9.11a4.78,4.78,0,0,0,.17,1.56,1.8,1.8,0,0,0,.78.78,2,2,0,0,1,.86,1.56,1.79,1.79,0,0,1-.49,1.28,1.91,1.91,0,0,1-1.47.46,2.61,2.61,0,0,1-2-.89,3.71,3.71,0,0,1-.87-2H32.4a4.73,4.73,0,0,1-2.15,2.18,7,7,0,0,1-3.27.75"/><path class="cls-2" d="M42.65,118.57a1.53,1.53,0,0,1-1.27-.56,2.12,2.12,0,0,1-.45-1.38v-8.77a2.14,2.14,0,0,0-1-2,2,2,0,0,1-.91-1.78,1.75,1.75,0,0,1,.52-1.26,1.71,1.71,0,0,1,1.37-.51q2.37.17,2.85,2.88h.06A5.72,5.72,0,0,1,49,102a5.22,5.22,0,0,1,5.17,3.27h.1a5.47,5.47,0,0,1,2.09-2.33,5.65,5.65,0,0,1,3.08-.94,5.93,5.93,0,0,1,4.79,2,8.72,8.72,0,0,1,1.7,5.81v6.8a2.22,2.22,0,0,1-.42,1.38,1.54,1.54,0,0,1-1.29.56,1.56,1.56,0,0,1-1.3-.56,2.12,2.12,0,0,1-.45-1.38v-6.49q0-4.85-3.46-4.84a3.42,3.42,0,0,0-2.77,1.33,5.44,5.44,0,0,0-1.09,3.54v6.46a2.22,2.22,0,0,1-.42,1.38,1.54,1.54,0,0,1-1.29.56,1.56,1.56,0,0,1-1.3-.56,2.12,2.12,0,0,1-.45-1.38v-6.49a6.71,6.71,0,0,0-.81-3.53,2.76,2.76,0,0,0-2.52-1.31,3.49,3.49,0,0,0-2.88,1.33,5.5,5.5,0,0,0-1.08,3.58l0,6.42A2.11,2.11,0,0,1,44,118a1.58,1.58,0,0,1-1.3.56"/><path class="cls-2" d="M78.27,115.35A4.09,4.09,0,0,0,81.5,114a5.39,5.39,0,0,0,1.21-3.68,5.32,5.32,0,0,0-1.23-3.7,4.07,4.07,0,0,0-3.15-1.35,4.21,4.21,0,0,0-3.28,1.32,5.28,5.28,0,0,0-1.19,3.67A5.56,5.56,0,0,0,75,114a4,4,0,0,0,3.24,1.39m.73,3.22a6.93,6.93,0,0,1-3.26-.8,5.15,5.15,0,0,1-2.25-2.2h-.06v1.28a1.56,1.56,0,0,1-.36,1,1.44,1.44,0,0,1-2.09,0,1.66,1.66,0,0,1-.37-1.1V96.27a2,2,0,0,1,.44-1.34,1.6,1.6,0,0,1,1.31-.54,1.54,1.54,0,0,1,1.28.54,2,2,0,0,1,.43,1.34v7.92h.06a5.14,5.14,0,0,1,2.05-1.56,7.06,7.06,0,0,1,8.1,1.64,8.66,8.66,0,0,1,2,5.94,9,9,0,0,1-2,6A6.54,6.54,0,0,1,79,118.57"/><path class="cls-2" d="M97.19,115.45a4,4,0,0,0,3.23-1.42,5.73,5.73,0,0,0,1.18-3.79,5.4,5.4,0,0,0-1.21-3.73,4.15,4.15,0,0,0-3.26-1.36A4,4,0,0,0,94,106.56,6.29,6.29,0,0,0,94,114a4,4,0,0,0,3.21,1.42m-.83,3.11a6.52,6.52,0,0,1-5.19-2.29,8.77,8.77,0,0,1-2-5.91,8.88,8.88,0,0,1,2-6A6.71,6.71,0,0,1,96.55,102a6.33,6.33,0,0,1,3.23.82,5.46,5.46,0,0,1,2.16,2.26H102v-1.28a1.76,1.76,0,0,1,.35-1.1,1.28,1.28,0,0,1,1.06-.46,1.25,1.25,0,0,1,1,.46,1.71,1.71,0,0,1,.36,1.1v9.11a4.87,4.87,0,0,0,.16,1.56,1.9,1.9,0,0,0,.79.78,2,2,0,0,1,.85,1.56,1.75,1.75,0,0,1-.49,1.28,1.88,1.88,0,0,1-1.47.46,2.6,2.6,0,0,1-1.94-.89,3.71,3.71,0,0,1-.87-2h-.07a4.71,4.71,0,0,1-2.14,2.18,7,7,0,0,1-3.28.75"/><path class="cls-2" d="M110.21,112.42V96.14a1.67,1.67,0,0,1,.49-1.28,1.87,1.87,0,0,1,2.48,0,1.71,1.71,0,0,1,.49,1.28l0,15.78c0,1.81.29,2.9.89,3.28l.23.22.24.21a2.53,2.53,0,0,1,.2.22,1.27,1.27,0,0,1,.17.27,1.86,1.86,0,0,1,.09.28,1.36,1.36,0,0,1,0,.36,1.81,1.81,0,0,1-.49,1.29,2,2,0,0,1-1.47.52,3,3,0,0,1-2.12-.91,4.33,4.33,0,0,1-1-2.09,15.33,15.33,0,0,1-.26-3.15"/><path class="cls-2" d="M122.33,118a1.55,1.55,0,0,1-1.3.58,1.5,1.5,0,0,1-1.28-.58,2.32,2.32,0,0,1-.43-1.44v-13a2.34,2.34,0,0,1,.43-1.44,1.49,1.49,0,0,1,1.28-.57,1.54,1.54,0,0,1,1.3.57,2.29,2.29,0,0,1,.45,1.44v13a2.27,2.27,0,0,1-.45,1.44M123,99a2.48,2.48,0,0,1-1.87.73,2.54,2.54,0,0,1-1.9-.75,2.64,2.64,0,0,1-.74-1.93,2.56,2.56,0,0,1,.72-1.92,2.63,2.63,0,0,1,1.92-.71,2.54,2.54,0,0,1,1.87.71,2.59,2.59,0,0,1,.7,1.92,2.7,2.7,0,0,1-.7,2"/><path class="cls-2" d="M131.38,118a1.56,1.56,0,0,1-1.3.56,1.51,1.51,0,0,1-1.28-.56,2.17,2.17,0,0,1-.43-1.38v-8.77a2.16,2.16,0,0,0-1-2,2,2,0,0,1-.92-1.78,1.77,1.77,0,0,1,1.9-1.77,2.86,2.86,0,0,1,1.86.79,3.69,3.69,0,0,1,1,2.09h.06a6,6,0,0,1,5.42-3.17,5.81,5.81,0,0,1,4.76,2,9,9,0,0,1,1.64,5.83v6.8a2.12,2.12,0,0,1-.45,1.38,1.56,1.56,0,0,1-1.3.56,1.51,1.51,0,0,1-1.28-.56,2.17,2.17,0,0,1-.43-1.38v-6.49q0-4.85-3.59-4.84a3.91,3.91,0,0,0-3.09,1.34,5.3,5.3,0,0,0-1.16,3.57l0,6.42a2.12,2.12,0,0,1-.45,1.38"/><path class="cls-2" d="M154.79,115.45A4,4,0,0,0,158,114a5.78,5.78,0,0,0,1.17-3.79,5.4,5.4,0,0,0-1.21-3.73,4.15,4.15,0,0,0-3.26-1.36,4,4,0,0,0-3.15,1.41,6.29,6.29,0,0,0,0,7.47,4.07,4.07,0,0,0,3.21,1.42m-.82,3.11a6.49,6.49,0,0,1-5.19-2.29,8.72,8.72,0,0,1-2-5.91,8.83,8.83,0,0,1,2-6,6.7,6.7,0,0,1,5.31-2.33,6.31,6.31,0,0,1,3.23.82,5.46,5.46,0,0,1,2.16,2.26h.06v-1.28a1.71,1.71,0,0,1,.36-1.1,1.25,1.25,0,0,1,1-.46,1.28,1.28,0,0,1,1.06.46,1.76,1.76,0,0,1,.35,1.1v9.11a4.78,4.78,0,0,0,.17,1.56,1.8,1.8,0,0,0,.78.78,2,2,0,0,1,.86,1.56,1.79,1.79,0,0,1-.49,1.28,1.91,1.91,0,0,1-1.47.46,2.61,2.61,0,0,1-2-.89,3.71,3.71,0,0,1-.87-2h-.06a4.76,4.76,0,0,1-2.14,2.18,7,7,0,0,1-3.28.75"/><path class="cls-2" d="M173.35,118.57a9.41,9.41,0,0,1-5.72-1.47,2,2,0,0,1-.89-1.65,1.25,1.25,0,0,1,.38-1,1.39,1.39,0,0,1,1-.31,16,16,0,0,1,2.08.79,8.11,8.11,0,0,0,3.18.74c2.11,0,3.16-.61,3.16-1.81a1.44,1.44,0,0,0-.58-1.16,3.81,3.81,0,0,0-1.29-.68c-.47-.15-1.14-.31-2-.5a13.85,13.85,0,0,1-2-.58,10.3,10.3,0,0,1-1.72-.87,3.64,3.64,0,0,1-1.31-1.42,4.32,4.32,0,0,1-.46-2.06,4,4,0,0,1,1.67-3.37,7.56,7.56,0,0,1,4.61-1.24,8.59,8.59,0,0,1,4.65,1.15,1.72,1.72,0,0,1,1,1.47,1.23,1.23,0,0,1-.6,1.21,2,2,0,0,1-1.48.07,9.15,9.15,0,0,1-.89-.35,9.46,9.46,0,0,0-1.36-.47,6.14,6.14,0,0,0-1.49-.18c-1.79,0-2.69.54-2.69,1.62a1.66,1.66,0,0,0,.1.61,1.07,1.07,0,0,0,.42.46,6.39,6.39,0,0,0,.58.35,4.6,4.6,0,0,0,.84.29l.94.25c.24.07.62.15,1.13.25l1.55.39a9,9,0,0,1,1.42.56,4.93,4.93,0,0,1,1.27.86,3.76,3.76,0,0,1,.81,1.25,4.35,4.35,0,0,1,.34,1.78,4.63,4.63,0,0,1-1.56,3.57c-1,.94-2.74,1.42-5.09,1.42"/><path class="cls-2" d="M8.05,97.65q4.65,0,4.65,3.42a3.17,3.17,0,0,1-1.14,2.69,4.91,4.91,0,0,1-3.05.87H5.91c-.42-.52-.15-2.06-1.23-3.21s-1-3.77-1-3.77Zm5.32,15.59a.49.49,0,0,1,0,.11c0,.07-.07.14-.1.2l-.08.15-.05.07a2.34,2.34,0,0,1-.77.73,7.59,7.59,0,0,1-3.92.81H7.32a9.14,9.14,0,0,1-1-1.49A6,6,0,0,0,4.79,112c-1.18-1.21-1.16-4-1.16-4H8.51q5.13,0,5.14,3.61a4.57,4.57,0,0,1-.18,1.34,2,2,0,0,1-.1.26m2.7-5a7,7,0,0,0-3.47-2v-.07a5.11,5.11,0,0,0,2.75-2,6.12,6.12,0,0,0,1-3.56q0-6.1-8.31-6.11H2a1.72,1.72,0,0,0-1.95,2v20.28a1.72,1.72,0,0,0,2,1.95h6.2a12.87,12.87,0,0,0,6.79-1.52c1.62-1,2.44-2.71,2.44-5.13a5.29,5.29,0,0,0-1.31-3.69"/></svg>