<svg id="Capa_1" data-name="Capa 1" xmlns="http://www.w3.org/2000/svg" viewBox="0 0 280.08 288.91"><defs><style>.cls-1{fill:#edda3a;}.cls-2{fill:#900c32;}</style></defs><path class="cls-1" d="M280.08,139.68c0,42.48-23.75,86.69-47,109.78-24.77,24.6-68.54,41.47-107.79,39.26-36.07-2-70.47-13.7-91.63-34C6.33,228.63,0,186.27,0,143.31,0,103.63,15.94,72.19,42.75,47,67.44,23.83,98.27,0,134.8,0c39.61,0,68.27,28.73,93.44,56.64C251.5,82.43,280.07,95,280.08,139.68Z"/><path class="cls-2" d="M270,147.6c-5.58,36.61-19.68,74.55-41.76,96.48-23.52,23.36-65.69,36-103,33.94C91,276.09,59,268.34,38.88,249.12c-25.95-24.83-35-65.77-35-106.56,0-37.68,18.18-66.82,43.64-90.72C71,29.83,100.23,7.2,134.92,7.2c37.62,0,65.82,23.89,89.72,50.4C246.72,82.09,275.24,113.24,270,147.6Z"/></svg>