<svg id="Capa_1" data-name="Capa 1" xmlns="http://www.w3.org/2000/svg" viewBox="0 0 279.98 279.12"><defs><style>.cls-1{fill:#edda3a;}.cls-2{fill:#900c32;}</style></defs><path class="cls-1" d="M280,139.09c0,74.75-64.84,148.09-139.08,139.31C59.14,268.73,19,235.31,1.82,152.76-6.73,111.59,16,55.7,46,30.88,69.44,11.57,108.49,0,141.19,0c29.39,0,66.91,13.16,87.19,31.44C260,59.91,280,93.73,280,139.09Z"/><path class="cls-2" d="M278.06,138.88c0,72.38-65,139.38-136.84,130.88C62.06,260.4,24.77,231.6,8.17,151.68-.11,111.82,20,58.35,49.1,34.32,71.75,15.63,109.56,7.68,141.22,7.68c28.46,0,54.88,13.39,76.36,28.8C250.74,60.26,278.06,95,278.06,138.88Z"/></svg>