<svg id="Capa_1" data-name="Capa 1" xmlns="http://www.w3.org/2000/svg" viewBox="0 0 283.68 277.99"><defs><style>.cls-1{fill:#edda3a;}.cls-2{fill:#900c32;}</style></defs><path class="cls-1" d="M283.68,142.08c0,38.31-13.87,78.19-41.9,101.74-26.84,22.55-76.78,36-113.43,34C54,273.7,0,223.7,0,148.69c0-34.33,5.64-88.1,26.64-112C51.53,8.34,111.24,0,151.92,0c45.51,0,80.63,25.78,102,61.44C267.77,84.55,283.68,112.58,283.68,142.08Z"/><path class="cls-2" d="M281.52,142.56c0,37-16.16,74.83-43.2,97.55-25.9,21.76-74.34,37.43-109.44,32.77C58.32,263.52,5,220.69,5,148.32c0-33.12,9.26-85,29.52-108.07,24-27.34,78.11-37.37,117.36-37.37,43.91,0,74.42,27.52,95,61.92C260.33,87.1,281.52,114.1,281.52,142.56Z"/></svg>