<svg id="Capa_1" data-name="Capa 1" xmlns="http://www.w3.org/2000/svg" viewBox="0 0 541.84 219.78"><defs><style>.cls-1{fill:#edda3a;}.cls-2{fill:#900c32;}.cls-3{fill:#e9903c;}.cls-4{fill:#6287c4;}.cls-5{fill:#3d90ce;}.cls-6{fill:#de94b2;}.cls-7{fill:#e20613;}.cls-8{fill:#81cff4;}.cls-9{fill:#e8639f;}</style></defs><path class="cls-1" d="M0,0A154.46,154.46,0,0,1,16,43.06C22.07,72.87,27.78,109.88,57,139c53.46,53.23,115.46,40.18,144.1,37.57s83.77-12.89,160.58-14.61c98.56-2.21,180.14,30.44,180.14,30.44V0Z"/><path class="cls-2" d="M31.89,0S11.41,84.62,63.79,135.84,180,172.42,208,169.91s91.14-18.68,169.1-17.4c81.26,1.35,164.71,22.39,164.71,22.39V0Z"/><path class="cls-3" d="M156.29,181.47a66.47,66.47,0,0,0,10-9.4q6.78-7.9,7.75-15.56,1.32-10.35-4-17.1T151.77,131q-11-1.4-18.83,2.11a25.86,25.86,0,0,0-2.86,1.5q-4.5,2.55-5,6.75a7.58,7.58,0,0,0,1.18,5.27,6,6,0,0,0,4.53,2.76q2.43.3,7.65-1.59a21.17,21.17,0,0,1,9.33-1.48q5.13.66,6.77,3.09a8.6,8.6,0,0,1,1.17,6.07q-.77,6.08-8.46,12.92A87.58,87.58,0,0,1,128,181c-.2.1-.68.37-1.43.81l-1.44.86c-.2.13-.61.38-1.23.74a6.07,6.07,0,0,0-1.19.85,11.82,11.82,0,0,1-1,.87,3.77,3.77,0,0,0-.94,1.07c-.17.32-.39.71-.67,1.15a4.94,4.94,0,0,0-.59,1.34,11.92,11.92,0,0,0-.29,1.53,7.12,7.12,0,0,0,1.27,5.33q1.65,2.25,5.48,2.73l38.35,4.86a7.76,7.76,0,0,0,5.77-1.35,7,7,0,0,0,2.8-5,7.21,7.21,0,0,0-1.5-5.73A7.86,7.86,0,0,0,166,188.3l-16.42-2.08,0-.19A77.72,77.72,0,0,0,156.29,181.47Z"/><path class="cls-3" d="M241.87,196.13A34.26,34.26,0,0,1,229.64,193a30.67,30.67,0,0,1-9.81-7.24,29.59,29.59,0,0,1-6.27-11.52,42.77,42.77,0,0,1-1.51-15.47A41.26,41.26,0,0,1,215.73,144a31.2,31.2,0,0,1,7.86-10.62,32.2,32.2,0,0,1,23.12-7.57,30.74,30.74,0,0,1,22,11.11q8.72,10.19,7.58,26.41-1.17,16.8-11,25.3T241.87,196.13Zm-5.38-25.45a9.14,9.14,0,0,0,14.07,1c2-2.08,3.17-5.41,3.48-10s-.38-8.14-2.11-10.49a9,9,0,0,0-13.94-1q-3.08,3.14-3.56,10.1T236.49,170.68Z"/><path class="cls-3" d="M273.06,143.46c4.36,42.83-29.88,52.68-30.47,52.76a30.22,30.22,0,0,0,18.82-5q10.86-7.11,14.29-23.59C277.62,158.39,276.45,150.34,273.06,143.46Z"/><path class="cls-3" d="M441.92,185.32a67.34,67.34,0,0,0,13-10.72q7.1-7.62,8.39-15.23Q465,149.08,460,142.12c-.25-.34-.51-.67-.79-1Q453.94,135,442.07,133q-13-2.19-21.82,2.71c-3.06,1.58-4.83,3.77-5.3,6.55a7.6,7.6,0,0,0,1,5.31,6,6,0,0,0,4.41,2.94q2.42.41,7.7-1.28a21.3,21.3,0,0,1,9.39-1.09q5.1.87,6.64,3.36a8.63,8.63,0,0,1,.92,6.12q-1,6-9,12.56A87.32,87.32,0,0,1,416.27,182c-.21.09-.7.34-1.46.75l-1.47.8-1.26.7a6.23,6.23,0,0,0-1.24.79,10.83,10.83,0,0,1-1,.83,3.72,3.72,0,0,0-1,1c-.18.32-.42.69-.71,1.12a4.76,4.76,0,0,0-.65,1.32,11,11,0,0,0-.35,1.52,7.06,7.06,0,0,0,1.05,5.37q1.56,2.31,5.36,3l2.34.39s2.65.52,6.6,1.11l29.18,4.92a7.7,7.7,0,0,0,5.82-1.12,7,7,0,0,0,3-4.83,7.27,7.27,0,0,0-1.27-5.79A7.68,7.68,0,0,0,454.8,191l-.82-.17-16.32-2.75,0-.18Q439.88,186.64,441.92,185.32Z"/><path class="cls-3" d="M371.71,177.62a7.28,7.28,0,0,0-3.48-4.8,7.85,7.85,0,0,0-6-.68l-3.13.78-12.93,3.22-.05-.18a73.59,73.59,0,0,0,7.6-12.21,63.94,63.94,0,0,0,2.88-6.83q3.46-9.82,1.6-17.31-2.54-10.14-10-14.48a18.28,18.28,0,0,0-6.88-2.29,35.17,35.17,0,0,0-13.15,1.07q-12.78,3.2-18.92,11.21-3.25,4-2.24,8.12a7.56,7.56,0,0,0,3,4.48,6,6,0,0,0,5.22.93c1.58-.39,3.77-1.81,6.55-4.25a21.21,21.21,0,0,1,8.17-4.75c3.35-.83,5.82-.69,7.43.43a8.65,8.65,0,0,1,3.29,5.24q1.47,5.94-3.22,15.1a87.08,87.08,0,0,1-13.37,18.69c-.15.17-.5.6-1,1.28s-.88,1.12-1,1.32-.43.58-.87,1.14a5.83,5.83,0,0,0-.82,1.22,9.3,9.3,0,0,1-.58,1.16,3.75,3.75,0,0,0-.49,1.34c0,.36-.11.8-.21,1.31a4.91,4.91,0,0,0-.07,1.47,12.68,12.68,0,0,0,.29,1.53,7.15,7.15,0,0,0,3.11,4.51c1.57,1,3.61,1.18,6.1.56l15-3.73L366,186.61a7.72,7.72,0,0,0,4.88-3.35A7,7,0,0,0,371.71,177.62Z"/><polygon class="cls-4" points="198.75 190.12 201.07 187.08 204.27 190.12 202.31 191.88 198.75 190.12"/><polygon class="cls-5" points="273.35 210.65 275.86 208.53 276.83 209.59 275.09 212.01 273.35 210.65"/><polygon class="cls-4" points="188.91 147.47 191.9 145.56 193.71 148.97 191.31 150.46 188.91 147.47"/><path class="cls-6" d="M106.24,175.36s8.06,1.45-2.85,9.37c0,0-4.55,3.41,2.57,9.09,6.46,4.65.06,7.39-.8,8.06s-8.85,6.11.39,9c0,0,1.59.42,2-.34s.2-.71.2-.71-7,.73-5.77-3.57c.94-2.52,5.24-4.41,6.15-5.41s2.53-3.28-1.15-6.85-4.59-3.51-4.45-5.73,4.78-5.26,5.29-5.87,3.48-4.22.36-7.34a5.82,5.82,0,0,0-3.55-1.18Z"/><path class="cls-7" d="M395.2,120.39s-15.92,2.35,1.77,15.2c0,0,7.39,5.54-4.17,14.76-10.48,7.54-.09,12,1.3,13.07s14.36,9.91-.62,14.53c0,0-2.59.68-3.27-.56s-.32-1.14-.32-1.14,11.34,1.18,9.36-5.8c-1.53-4.09-8.5-7.16-10-8.79s-4.11-5.32,1.86-11.11,7.45-5.69,7.22-9.3-7.75-8.53-8.59-9.52-5.64-6.85-.57-11.92a9.38,9.38,0,0,1,5.74-1.91Z"/><path class="cls-8" d="M297.52,214.13s13.84-2-1.55-13.23c0,0-7.38-5.29,2.67-13.31,9.12-6.57.29-9.25-.92-10.19S286,168.06,299,164c0,0,2.26-.59,2.84.49s.28,1,.28,1-9.86-1-8.14,5c1.33,3.56,7.4,6.23,8.68,7.64s3.57,4.63-1.62,9.67-7.05,5.38-6.85,8.52,4.6,5.7,6.7,7.56,5,4.5,2.24,8.5a6.13,6.13,0,0,1-5.53,2.6Z"/><polygon class="cls-5" points="187.36 172.01 188.94 170.32 191.31 172.01 189.7 173.36 187.36 172.01"/><polygon class="cls-7" points="252.14 217.2 254.55 215.85 254.55 218.43 252.14 219.78 252.14 217.2"/><polygon class="cls-7" points="291.8 142.08 299.23 142.08 297.88 144.85 292.7 144.85 291.8 142.08"/><polygon class="cls-5" points="210.38 127.89 209.59 131.72 213.76 129.84 213.76 126.36 210.38 127.89"/><polygon class="cls-9" points="279.67 166.82 281.02 169.22 283.5 168.02 283.5 165.92 279.67 166.82"/><polygon class="cls-5" points="368.61 205.99 371.09 208.93 374.32 205.99 374.32 204.64 368.61 205.99"/><polygon class="cls-4" points="473.49 171.89 477.47 173.23 475.48 175.74 473.49 174.51 473.49 171.89"/><polygon class="cls-9" points="490.42 189.96 494.97 190.28 493.24 191.99 490.42 191.99 490.42 189.96"/><polygon class="cls-4" points="281.46 129.61 278.08 129.61 279.77 132.13 282.58 132.13 281.46 129.61"/><polygon class="cls-4" points="493.82 146.75 490.44 146.75 492.13 149.27 494.95 149.27 493.82 146.75"/><polygon class="cls-5" points="320.87 165.84 320.87 168.14 319.18 168.14 319.18 166.99 320.87 165.84"/></svg>